<svg xmlns="http://www.w3.org/2000/svg" 
    x="0px" y="0px" 
    width="65" height="65" 
    viewBox="0 0 91 113.75">
    <g fill="#fff">
        <path d="M45.921,60.266c-0.939,0-1.701,0.762-1.701,1.701v8.764l-2.742-2.398c-0.707-0.617-1.78-0.547-2.398,0.162   c-0.617,0.707-0.547,1.781,0.16,2.398l5.563,4.865c0.081,0.07,0.178,0.105,0.268,0.158c0.021,0.014,0.04,0.031,0.063,0.043   c0.039,0.021,0.07,0.057,0.11,0.074c0.018,0.008,0.037,0.012,0.055,0.018c0.201,0.08,0.41,0.127,0.623,0.127l0,0h0.001   c0.212,0,0.423-0.047,0.624-0.127c0.016-0.006,0.033-0.01,0.051-0.016c0.049-0.021,0.086-0.066,0.134-0.092   c0.012-0.008,0.022-0.016,0.035-0.023c0.092-0.055,0.19-0.09,0.274-0.164l5.561-4.863c0.707-0.617,0.779-1.691,0.16-2.398   c-0.615-0.709-1.693-0.779-2.398-0.16l-2.742,2.398v-8.766C47.62,61.027,46.859,60.266,45.921,60.266z" /><path d="M59.437,48.023V30.088c0-5.57-4.531-10.1-10.1-10.1h-6.834c-5.568,0-10.1,4.529-10.1,10.1v17.935   c0,5.57,4.531,10.102,10.1,10.102h6.834C54.905,58.125,59.437,53.594,59.437,48.023z M47.62,35.215   c0,0.939-0.761,1.699-1.699,1.699c-0.939,0-1.701-0.76-1.701-1.699v-4.65c0-0.939,0.762-1.699,1.701-1.699   c0.938,0,1.699,0.76,1.699,1.699V35.215z" />
    </g>
</svg>